<svg width="293" height="72" viewBox="0 0 293 72" fill="none" xmlns="http://www.w3.org/2000/svg">
<path d="M105.235 51.3192H115.973L102.627 20.6809H92.5023L79.1562 51.3192H89.7411L91.7353 45.9575H103.394L105.235 51.3192ZM94.3432 38.6043L97.2578 30.9447L100.172 38.6043H94.3432Z" fill="white"/>
<path d="M124.87 51.3192H135.148V28.6469H144.199V20.6809H115.973V28.6469H125.023V51.3192H124.87Z" fill="white"/>
<path d="M149.108 51.3192H173.346V43.3532H159.539V20.6809H149.261V51.3192H149.108Z" fill="white"/>
<path d="M201.725 51.3192H212.463L199.117 20.6809H188.993L175.646 51.3192H186.231L188.226 45.9575H199.884L201.725 51.3192ZM190.833 38.6043L193.748 30.9447L196.663 38.6043H190.833Z" fill="white"/>
<path d="M236.394 20.6809V34.6213L224.736 20.6809H216.298V51.3192H226.423V37.3788L238.082 51.3192H246.519V20.6809H236.394Z" fill="white"/>
<path d="M260.325 51.3192H270.603V28.6469H279.654V20.6809H251.428V28.6469H260.479V51.3192H260.325Z" fill="white"/>
<path d="M38.3507 8.42554C51.8501 8.42554 62.8952 19.4553 62.8952 32.9362C62.8952 46.417 51.8501 57.4468 38.3507 57.4468C24.8512 57.4468 13.8062 46.417 13.8062 32.9362C13.8062 19.4553 24.8512 8.42554 38.3507 8.42554Z" fill="#29384F"/>
<path d="M31.6011 56.5276C32.6749 43.9659 43.2597 34.1616 55.9922 34.1616C58.2932 34.1616 60.4409 34.468 62.4351 35.0808C61.3613 47.6425 50.7765 57.4467 38.044 57.4467C35.8964 57.4467 33.7487 57.1403 31.6011 56.5276Z" fill="#0076C6"/>
<path fill-rule="evenodd" clip-rule="evenodd" d="M13.8062 30.9447C14.88 18.383 25.3114 8.42554 38.1973 8.42554C39.7313 8.42554 41.2653 8.57873 42.6459 8.88511C41.5721 21.4468 31.1407 31.4043 18.2548 31.4043C16.7208 31.4043 15.3402 31.2511 13.8062 30.9447Z" fill="#70C5FF"/>
<path d="M62.8954 33.5488C62.8954 33.3956 62.8954 33.2424 62.8954 33.0892C62.8954 31.7105 62.742 30.485 62.5886 29.1063C67.0373 24.9701 69.952 21.5999 68.7247 20.3744C66.8839 18.5361 47.0949 27.268 36.8169 34.1616C26.6923 41.2084 13.8064 53.3105 16.2609 55.4552C17.0279 56.068 20.4027 55.1488 24.698 53.3105C25.7718 54.0765 26.9991 54.6892 28.3797 55.302C20.8629 58.3658 14.8802 59.4382 12.5792 57.5999C8.43729 54.3829 18.8687 41.8212 34.976 31.0978C51.0834 20.3744 67.1907 15.0127 71.1792 18.3829C74.0938 20.5275 70.4122 26.502 62.8954 33.5488Z" fill="white"/>
</svg>
